<?xml version="1.0" encoding="utf-8"?>
<svg xmlns="http://www.w3.org/2000/svg" xmlns:xlink="http://www.w3.org/1999/xlink" id="Layer_1" x="0px" y="0px" version="1.1" viewBox="0 0 269.1 59.8" xml:space="preserve">
    <path fill="#000" d="M101.2,22.1c0,1.1-0.9,1.9-2,1.9h-5.6v13.3c0,1.1-0.9,1.9-2,1.9s-2-0.8-2-1.9V24h-5.7c-1.1,0-2-0.8-2-1.9
	c0-1.1,0.9-1.9,2-1.9h15.3C100.4,20.2,101.2,21.1,101.2,22.1z M75.4,29.6l-7.3-3.2c-0.9-0.3-2-1-2-1.8c0-0.7,0.6-1.2,1.3-1.2h6.5
	c0.4,0,0.9,0.2,1.2,0.8c0.3,0.8,1,1.2,1.9,1.2c0.2,0,0.4,0,0.6-0.1c0.5-0.2,0.9-0.5,1.1-0.9c0.3-0.4,0.3-0.9,0.1-1.3
	c-0.8-2.1-2.4-3.2-4.9-3.2h-6.5c-2.8,0-5.1,2.2-5.1,4.8c0,2.2,1.5,4,4.3,5.1l7.3,3.2c0.4,0.2,2,0.8,2,1.8c0,0.7-0.6,1.2-1.3,1.2
	h-7.9c-0.5,0-1.1-0.3-1.3-0.8c-0.3-0.8-1-1.2-1.9-1.2c-0.2,0-0.4,0-0.6,0.1c-0.5,0.2-0.9,0.5-1.1,0.9c-0.3,0.4-0.3,0.9-0.1,1.3
	c0.6,2.1,2.4,3.2,4.9,3.2h7.9c2.8,0,5.1-2.1,5.1-4.8C79.7,32.5,78.1,30.7,75.4,29.6z M30,37.1c-1-0.5-2.3-1.2-2.3-1.2V23.7
	c0,0,0.9-0.5,1.8-0.9c0.9-0.5,0.9-1.8,0.1-2.4c-0.3-0.2-0.5-0.2-0.8-0.2h-6.3c-0.3,0-0.6,0-0.9,0.2c-0.9,0.7-0.8,2,0.1,2.4
	s1.9,0.9,1.9,0.9v12.1h-1.4c-1,0-1.9,0.9-1.9,1.8c0,1,0.9,1.8,1.9,1.8h7.5C30.9,39.5,31.2,37.7,30,37.1z M54.7,19.9
	c-1.1,0-2,0.8-2,1.9v13.6h-0.9c-0.2,0-0.3-0.1-0.4-0.2l-6.8-13.1c-0.8-1.4-2.3-2.2-4.1-2.2h-2.6c-1.1,0-2.1,0.8-2.1,1.8v15.8
	c0,1.1,0.9,1.9,2,1.9c1.1,0,2-0.8,2-1.9V23.7h0.6c0.2,0,0.3,0.1,0.4,0.2l6.8,13.2c0.8,1.4,2.3,2.4,4.1,2.4h2.8c1.1,0,2-1,2-2.1V21.8
	C56.7,20.8,55.8,19.9,54.7,19.9z M117.2,22.7c-0.9-1.9-2.7-3.2-4.9-3.2c-2.2,0-4.1,1.2-4.9,3.1v0.1l-5.5,14.1
	c-0.2,0.3-0.2,0.8-0.1,1.1c0.2,0.9,1.1,1.5,2,1.5h7.6c1.1,0,1.4-1.3,0.5-1.8l-5-2.6l4.3-11c0.2-0.4,0.6-0.7,1.1-0.7s0.9,0.2,1.1,0.7
	l5.5,14.1c0.3,0.8,1.1,1.2,2,1.2c0.3,0,0.5,0,0.7-0.1c1-0.3,1.6-1.4,1.2-2.4L117.2,22.7z M174.2,36.8l-5.5-14.1v-0.1
	c-0.9-1.8-2.8-3.1-5-3.1s-4.1,1.2-4.9,3.1v0.1l-5.5,14.1c-0.2,0.3-0.2,0.8-0.1,1.1c0.2,0.9,1.1,1.5,2,1.5h7.6c1.1,0,1.4-1.3,0.5-1.8
	l-5-2.6l4.3-11c0.2-0.4,0.6-0.7,1.1-0.7s0.9,0.2,1.1,0.7l5.5,14c0.3,0.8,1.1,1.2,2,1.2c0.3,0,0.5,0,0.7-0.1
	C174,38.8,174.5,37.8,174.2,36.8z M146.4,19.6c-1.1,0-2,0.8-2,1.9v14h-0.9c-0.2,0-0.3-0.1-0.4-0.2l-6.8-13.1
	c-0.8-1.4-2.3-2.2-4.1-2.2h-2.6c-1.1,0-2.1,0.8-2.1,1.8v15.8c0,1.1,0.9,1.9,2,1.9c1.1,0,2-0.8,2-1.9V23.7h0.6c0.2,0,0.3,0.1,0.4,0.2
	l6.8,13.2c0.8,1.4,2.3,2.4,4.1,2.4h2.8c1.1,0,2.1-1,2.1-2.1v-16C148.5,20.4,147.6,19.6,146.4,19.6z"/>
    <path fill="#02D8D9" d="M185,25.3l-5,13.5h1.4l1.5-4.1h5.7l1.5,4.1h1.3l-5-13.5H185z M183.2,33.5l2.4-6.7h0.1l2.4,6.7H183.2z
	 M197.3,25.3h-4.6v13.5h1.3v-5.1h3.3c2.6,0,4.3-1.7,4.3-4.2C201.7,27,199.9,25.3,197.3,25.3z M197.1,32.5h-3v-6.1h3
	c2.1,0,3.3,1.1,3.3,3S199.1,32.5,197.1,32.5z M204.8,25.3v13.5h-1.3V25.3H204.8z"/>
</svg>
